<svg width="131" height="34" viewBox="0 0 131 34" fill="none" xmlns="http://www.w3.org/2000/svg">
<path fill-rule="evenodd" clip-rule="evenodd" d="M4.98974 4.9777C-0.46085 10.4239 -0.249483 10.1603 0.218298 10.9275C0.333522 11.1164 1.24833 12.4408 2.25126 13.8704C3.74354 15.9976 4.07483 16.5341 4.07483 16.8235C4.07483 17.1142 3.71362 17.6917 2.04145 20.0744C0.324347 22.521 0.00807884 23.0294 0.00807884 23.3424C0.00807884 23.6921 0.281072 23.9868 4.83083 28.5483C7.48339 31.2076 9.78767 33.4542 9.95159 33.5407C10.1154 33.6272 10.3576 33.6709 10.4898 33.6377C10.6218 33.6046 12.035 32.6622 13.6302 31.5437C15.6411 30.1337 16.6158 29.51 16.8089 29.51C17.0014 29.51 17.9637 30.1225 19.9266 31.4945C21.4882 32.5859 22.8567 33.5275 22.9677 33.5869C23.0786 33.6463 23.2981 33.6666 23.4553 33.6321C23.652 33.5889 25.2751 32.0341 28.663 28.6435C33.1612 24.1416 33.5848 23.6881 33.5848 23.3744C33.5848 22.9201 33.6389 23.0083 31.4794 19.9405C30.121 18.0108 29.5831 17.1629 29.5482 16.8967C29.5035 16.5561 29.6542 16.3072 31.5019 13.6705C32.6031 12.0991 33.5412 10.684 33.5866 10.5258C33.6414 10.3344 33.6185 10.1389 33.518 9.94184C33.3226 9.55842 24.1392 0.349948 23.7425 0.13952C23.5717 0.0489048 23.3184 0.00427506 23.1576 0.0363919C23.0016 0.0676746 21.659 0.945884 20.1741 1.98801C18.6892 3.03014 17.324 3.94735 17.1404 4.02629C16.9045 4.12754 16.7294 4.14037 16.5439 4.06988C16.3996 4.01492 15.0079 3.07676 13.4514 1.98499C11.2455 0.437748 10.5498 0 10.2964 0C10.0068 0 9.43042 0.540669 4.98974 4.9777ZM22.7265 10.9884C27.7863 16.0513 28.3853 16.6851 28.3199 16.906C28.2217 17.238 17.2291 28.2475 16.9153 28.3281C16.6995 28.3835 15.9695 27.6918 10.9977 22.7206C6.5106 18.234 5.32613 16.9949 5.32613 16.7874C5.32613 16.4053 16.4177 5.31806 16.8 5.31806C17.0042 5.31806 18.2728 6.53193 22.7265 10.9884ZM15.3967 13.3925C14.6026 13.7255 13.8732 14.443 13.4934 15.2649C13.2392 15.8151 13.1989 16.0305 13.1989 16.8427C13.1989 17.6949 13.2311 17.8486 13.5409 18.4778C14.8997 21.2381 18.9175 21.1456 20.1912 18.3248C20.434 17.7872 20.4851 17.53 20.4863 16.838C20.4876 16.1208 20.4424 15.9048 20.1701 15.326C19.5113 13.9261 18.4381 13.2164 16.9007 13.1639C16.149 13.1382 15.9205 13.1729 15.3967 13.3925Z" fill="#4856E0"/>
<path d="M52.8455 26.8242H57.944V9.77997H64.8506V5.33364H45.9685V9.77997H52.8455V26.8242ZM76.2242 10.7878C75.987 10.7582 75.7203 10.7582 75.4831 10.7582C73.2007 10.8471 71.8668 12.0328 71.1257 13.9002V10.8767H66.4126V26.8242H71.3036V18.8208C71.3036 16.3309 72.5485 15.4713 74.8903 15.4713C75.3349 15.4713 75.6906 15.5009 76.2242 15.5602V10.7878ZM87.9176 16.8644C81.7223 17.3091 77.3057 18.6133 77.3057 22.5261C77.3057 25.431 79.7956 27.2096 82.8191 27.2096C85.1015 27.2096 86.9986 26.5871 88.1843 24.8975L88.2436 26.8242H93.0457C92.7492 25.4607 92.6603 22.615 92.6899 20.5401L92.7492 17.0719C92.8382 12.2106 90.2 10.3728 85.6351 10.3728C80.922 10.3728 78.0171 13.0406 77.8096 16.0345H82.3745C82.5523 14.4931 83.6491 13.6927 85.2201 13.6927C86.969 13.6927 87.9176 14.3745 87.9176 16.242V16.8644ZM88.0361 19.7397V20.1251C88.0361 23.0597 86.554 23.8896 84.5976 23.8896C83.323 23.8896 82.3448 23.2079 82.3448 22.1704C82.3448 20.4808 84.6273 20.0362 88.0361 19.7397ZM100.743 10.8767H95.8522V26.8242H100.743V18.643C100.743 15.7084 101.632 14.3152 103.707 14.3152C106.079 14.3152 106.168 16.1827 106.168 18.4651V26.8242H111.059V17.2498C111.059 12.922 109.784 10.521 105.693 10.521C103.203 10.521 101.455 11.7956 100.743 12.9813V10.8767ZM124.015 16.8644C117.82 17.3091 113.403 18.6133 113.403 22.5261C113.403 25.431 115.893 27.2096 118.917 27.2096C121.199 27.2096 123.096 26.5871 124.282 24.8975L124.341 26.8242H129.143C128.847 25.4607 128.758 22.615 128.787 20.5401L128.847 17.0719C128.936 12.2106 126.297 10.3728 121.733 10.3728C117.019 10.3728 114.115 13.0406 113.907 16.0345H118.472C118.65 14.4931 119.747 13.6927 121.318 13.6927C123.066 13.6927 124.015 14.3745 124.015 16.242V16.8644ZM124.134 19.7397V20.1251C124.134 23.0597 122.651 23.8896 120.695 23.8896C119.42 23.8896 118.442 23.2079 118.442 22.1704C118.442 20.4808 120.725 20.0362 124.134 19.7397Z" fill="#05051A"/>
</svg>
